<svg xmlns="http://www.w3.org/2000/svg">

  <symbol viewBox="0 0 512 512" id="icon-home">
    <path d="m500.284 227.716-216-216c-15.621-15.621-40.948-15.621-56.568 0l-216 216c-15.621 15.621-15.621 40.948 0 56.568C23.69 296.258 41.363 299.042 56 292.659V452c0 33.137 26.863 60 60 60h280c33.137 0 60-26.863 60-60V292.659c14.637 6.383 32.31 3.599 44.284-8.375 15.621-15.621 15.621-40.947 0-56.568zM326 432c0 11.046-8.954 20-20 20H206c-11.046 0-20-8.954-20-20V312c0-11.046 8.954-20 20-20h100c11.046 0 20 8.954 20 20v120z"/>
  </symbol>

  <symbol viewBox="0 0 32 32" id="icon-gallery">
    <path d="M30 28a2 2 0 0 1-2 2h-5.168l-7.368-7.465L24 13.999l6 6V28zM4 30a2 2 0 0 1-2-2v-.939l7.945-7.116L20.001 30H4zM8 4a4 4 0 1 1 0 8 4 4 0 0 1 0-8zm20-4H4a4 4 0 0 0-4 4v24a4 4 0 0 0 4 4h24a4 4 0 0 0 4-4V4a4 4 0 0 0-4-4zM8 10a2 2 0 1 0-.001-4.001A2 2 0 0 0 8 10z"/>
  </symbol>

  <symbol viewBox="0 0 24 24" id="icon-arrowdwn">
    <path d="M7 2a5 5 0 0 0-5 5v10a5 5 0 0 0 5 5h10a5 5 0 0 0 5-5V7a5 5 0 0 0-5-5H7zm5 5a1 1 0 0 1 1 1v5.586l2.293-2.293a1 1 0 0 1 1.414 1.414l-4 4a1 1 0 0 1-1.414 0l-4-4a1 1 0 1 1 1.414-1.414L11 13.586V8a1 1 0 0 1 1-1z"/>
  </symbol>

  <symbol viewBox="0 0 24 24" id="icon-arrowlft">
    <path d="M17 2a5 5 0 0 1 5 5v10a5 5 0 0 1-5 5H7a5 5 0 0 1-5-5V7a5 5 0 0 1 5-5h10zm-4.293 5.293a1 1 0 0 0-1.414 0l-4 4a1 1 0 0 0 0 1.414l4 4a1 1 0 0 0 1.414-1.414L10.414 13H16a1 1 0 1 0 0-2h-5.586l2.293-2.293a1 1 0 0 0 0-1.414z"/>
  </symbol>

  <symbol viewBox="-143 145 512 512" id="icon-instagram">
    <path d="M113 446c24.8 0 45.1-20.2 45.1-45.1 0-9.8-3.2-18.9-8.5-26.3-8.2-11.3-21.5-18.8-36.5-18.8s-28.3 7.4-36.5 18.8c-5.3 7.4-8.5 16.5-8.5 26.3C68 425.8 88.2 446 113 446zM211.4 345.9v-43.4h-5.6l-37.8.1.2 43.4z"/><path d="M329 145h-432c-22.1 0-40 17.9-40 40v432c0 22.1 17.9 40 40 40h432c22.1 0 40-17.9 40-40V185c0-22.1-17.9-40-40-40zm-88 229.7v104.8c0 27.3-22.2 49.5-49.5 49.5h-157C7.2 529-15 506.8-15 479.5V322.4c0-27.3 22.2-49.5 49.5-49.5h157c27.3 0 49.5 22.2 49.5 49.5v52.3z"/><path d="M183 401c0 38.6-31.4 70-70 70s-70-31.4-70-70c0-9.3 1.9-18.2 5.2-26.3H10v104.8C10 493 21 504 34.5 504h157c13.5 0 24.5-11 24.5-24.5V374.7h-38.2c3.4 8.1 5.2 17 5.2 26.3z"/>
  </symbol>

  <symbol viewBox="-143 145 512 512" id="icon-facebook">
    <path d="M329 145h-432c-22.1 0-40 17.9-40 40v432c0 22.1 17.9 40 40 40h432c22.1 0 40-17.9 40-40V185c0-22.1-17.9-40-40-40zM169.5 357.6l-2.9 38.3h-39.3v133H77.7v-133H51.2v-38.3h26.5v-25.7c0-11.3.3-28.8 8.5-39.7 8.7-11.5 20.6-19.3 41.1-19.3 33.4 0 47.4 4.8 47.4 4.8l-6.6 39.2s-11-3.2-21.3-3.2-19.5 3.7-19.5 14v29.9h42.2z"/>
  </symbol>

  <symbol viewBox="-143 145 512 512" id="icon-twitter">
    <path d="M329 145h-432c-22.1 0-40 17.9-40 40v432c0 22.1 17.9 40 40 40h432c22.1 0 40-17.9 40-40V185c0-22.1-17.9-40-40-40zM215.2 361.2c.1 2.2.1 4.5.1 6.8 0 69.5-52.9 149.7-149.7 149.7-29.7 0-57.4-8.7-80.6-23.6 4.1.5 8.3.7 12.6.7 24.6 0 47.3-8.4 65.3-22.5-23-.4-42.5-15.6-49.1-36.5 3.2.6 6.5.9 9.9.9 4.8 0 9.5-.6 13.9-1.9-24.1-4.8-42.2-26.1-42.2-51.6v-.6c7.1 3.9 15.2 6.3 23.8 6.6-14.1-9.4-23.4-25.6-23.4-43.8 0-9.6 2.6-18.7 7.1-26.5 26 31.9 64.7 52.8 108.4 55-.9-3.8-1.4-7.8-1.4-12 0-29 23.6-52.6 52.6-52.6 15.1 0 28.8 6.4 38.4 16.6 12-2.4 23.2-6.7 33.4-12.8-3.9 12.3-12.3 22.6-23.1 29.1 10.6-1.3 20.8-4.1 30.2-8.3-7 10.6-15.9 19.8-26.2 27.3z"/>
  </symbol>

  <symbol viewBox="-143 145 512 512" id="icon-linkedin">
    <path d="M329 145h-432c-22.1 0-40 17.9-40 40v432c0 22.1 17.9 40 40 40h432c22.1 0 40-17.9 40-40V185c0-22.1-17.9-40-40-40zM41.4 508.1H-8.5V348.4h49.9v159.7zM15.1 328.4h-.4c-18.1 0-29.8-12.2-29.8-27.7 0-15.8 12.1-27.7 30.5-27.7s29.7 11.9 30.1 27.7c.1 15.4-11.6 27.7-30.4 27.7zM241 508.1h-56.6v-82.6c0-21.6-8.8-36.4-28.3-36.4-14.9 0-23.2 10-27 19.6-1.4 3.4-1.2 8.2-1.2 13.1v86.3H71.8s.7-146.4 0-159.7h56.1v25.1c3.3-11 21.2-26.6 49.8-26.6 35.5 0 63.3 23 63.3 72.4v88.8z"/>
  </symbol>

  <symbol viewBox="0 0 32 32" id="mail">
    <path d="m16 16.8 13.8-9.2C29.2 5.5 27.3 4 25 4H7C4.7 4 2.8 5.5 2.2 7.6L16 16.8z"/><path d="M16.6 18.8c-.2.1-.4.2-.6.2s-.4-.1-.6-.2L2 9.9V23c0 2.8 2.2 5 5 5h1v3c0 .4.2.7.5.9.2.1.3.1.5.1s.4-.1.6-.2c3.8-2.5 8.1-3.8 12.7-3.8H25c2.8 0 5-2.2 5-5V9.9l-13.4 8.9z"/>
  </symbol>

  <symbol viewBox="0 -1 32 32" id="favourites">
    <path d="M24 0c-3.333 0-6.018 1.842-8.031 4.235C14.013 1.76 11.333 0 8 0 3.306 0 0 4.036 0 8.438c0 2.361.967 4.061 2.026 5.659l12.433 14.906c1.395 1.309 1.659 1.309 3.054 0l12.461-14.906C31.22 12.499 32 10.799 32 8.438 32 4.036 28.694 0 24 0"/>
  </symbol>

  <symbol viewBox="-4 0 30 30" id="bookmarks">
    <path d="M18 0H4a4 4 0 0 0-4 4v22a4 4 0 0 0 4 4l7-7 7 7a4 4 0 0 0 4-4V4a4 4 0 0 0-4-4"/>
  </symbol>

  <symbol viewBox="0 -4 32 32" id="downloads">
    <path d="m22.718 13.81-5.941 5.91a.964.964 0 0 1-.761.28.966.966 0 0 1-.762-.28l-5.941-5.91a1.004 1.004 0 1 1 1.423-1.42L15 16.63V7.01a1.001 1.001 0 0 1 2 0v9.65l4.295-4.27a1.004 1.004 0 1 1 1.423 1.42zm.349-8.78C21.599 2.05 18.543 0 15 0c-4.749 0-8.63 3.68-8.967 8.34C2.542 9.34 0 12.39 0 16c0 4.26 3.54 7.73 8 7.98L25 24c3.437-1.49 7-5.65 7-9.5 0-5.05-3.951-9.18-8.933-9.47z"/>
  </symbol>

  <symbol viewBox="0 0 32 32" id="statistics">
    <path d="M23 19a1 1 0 1 1-2 0v-9a1 1 0 1 1 2 0v9zm-6 0a1 1 0 1 1-2 0V7a1 1 0 1 1 2 0v12zm-6 0a1 1 0 1 1-2 0v-4a1 1 0 1 1 2 0v4zM0 0v2h2v19c0 2.37 1.644 4 4 4h6l-4 7 3.012-.013L15 25h2l3.988 6.987L24 32l-4-7h6c2.356 0 4-1.63 4-4V2h2V0H0z"/>
  </symbol>

  <svg viewBox="-1 0 26 26" id="sharelink">
    <path d="M19 16c-1.77 0-3.315.925-4.204 2.312l-5.355-3.06c.346-.68.559-1.438.559-2.252 0-.503-.097-.979-.235-1.437l5.571-3.183A4.97 4.97 0 0 0 19 10a5 5 0 0 0 5-5 5 5 0 0 0-5-5 5 5 0 0 0-5 5c0 .503.097.979.235 1.438L8.664 9.62A4.973 4.973 0 0 0 5 8a5 5 0 0 0-5 5 5 5 0 0 0 5 5c1.14 0 2.179-.396 3.02-1.038l6.035 3.498c-.02.18-.055.354-.055.54a5 5 0 0 0 5 5 5 5 0 0 0 5-5 5 5 0 0 0-5-5"/>
  </svg>

  <symbol viewBox="-7 0 32 32" id="mobile">
    <path d="M0 20h18V7H0v13zM14 0H4a4 4 0 0 0-4 4v1h18V4a4 4 0 0 0-4-4zM9 24a2 2 0 1 1-.001 4.001A2 2 0 0 1 9 24zm-9 4a4 4 0 0 0 4 4h10a4 4 0 0 0 4-4v-6H0v6z"/>
  </symbol>
</svg>